<svg width="24" height="14" viewBox="0 0 24 14" fill="none" xmlns="http://www.w3.org/2000/svg">
<path d="M0 17.7248C0 15.8165 0.728324 14.2018 2.18497 12.8807V22.4587C0.728324 21.2844 0 19.7064 0 17.7248ZM4.47399 11.6697C4.75144 11.5963 5.01156 11.5413 5.25433 11.5046C5.49711 11.4679 5.79191 11.4495 6.13873 11.4495H6.65896V24H6.13873C5.79191 24 5.49711 23.9817 5.25433 23.945C5.01156 23.9083 4.75144 23.8532 4.47399 23.7798V11.6697ZM9.46821 12.4404C9.6763 10.8257 10.2659 9.3945 11.237 8.14679V24H8.94798V12.2202C9.01734 12.2202 9.19075 12.2936 9.46821 12.4404ZM13.526 5.94495C14.0809 5.50459 14.8092 5.10092 15.711 4.73394V24H13.526V5.94495ZM18 4.29358H18.8324C19.526 4.29358 20.0116 4.33028 20.289 4.40367V24H18V4.29358ZM23.8266 5.72477C24.104 5.21101 24.4509 4.73394 24.8671 4.29358V24H21.4335V4.62385C22.4046 4.84404 23.2023 5.21101 23.8266 5.72477ZM25.9075 3.08257C26.948 2.12844 28.1272 1.37615 29.4451 0.825688C30.763 0.275229 32.1503 0 33.6069 0C36.5896 0 39.1561 1.04587 41.3064 3.13761C43.4566 5.22936 44.7052 7.77982 45.052 10.789C45.4682 10.6422 45.8671 10.5138 46.2486 10.4037C46.6301 10.2936 47.0983 10.2385 47.6532 10.2385C49.4566 10.2385 50.9653 10.9174 52.1792 12.2752C53.3931 13.633 54 15.2661 54 17.1743C54 18.9358 53.4798 20.4771 52.4393 21.7982C51.3988 23.1193 49.7341 23.8532 47.4451 24H25.9075V3.08257Z" fill="white"/>
</svg>
